<svg xmlns="http://www.w3.org/2000/svg" width="18" height="18" viewBox="0 0 18 18">
  <path fill="#3B5998" fill-rule="evenodd" d="M17.0065719,0 L0.993428103,0 C0.44471588,0 0,0.444648437 0,0.993428103 L0,17.0065719 C0,17.5552167 0.44471588,18 0.993428103,18 L9.61433378,18 L9.61433378,11.0294799 L7.268616,11.0294799 L7.268616,8.31289576 L9.61433378,8.31289576 L9.61433378,6.30951614 C9.61433378,3.98457065 11.0343357,2.71860739 13.1083277,2.71860739 C14.1017558,2.71860739 14.9556453,2.79259182 15.2044407,2.82563864 L15.2044407,5.25532234 L13.766027,5.25599676 C12.6380511,5.25599676 12.4196722,5.79196235 12.4196722,6.57847685 L12.4196722,8.31289576 L15.1097514,8.31289576 L14.7594551,11.0294799 L12.4196722,11.0294799 L12.4196722,18 L17.0065719,18 C17.5552167,18 18,17.5552167 18,17.0065719 L18,0.993428103 C18,0.444648437 17.5552167,0 17.0065719,0"/>
</svg>
